<svg xmlns="http://www.w3.org/2000/svg" viewBox="0 0 1120 706" width="1120" height="706" font-family="Inter, 'Source Sans 3', 'Helvetica Neue', Arial, sans-serif">
  <rect x="0" y="0" width="1120" height="706" fill="#ffffff"/>
  <text x="32" y="34" font-size="17" font-weight="700" fill="#1A2B4A">Şekil 16.2 — Mekanizma → kriter matrisi: kitabın on dört bölümü tek tabloda</text>
  <text x="32" y="56" font-size="11.5" fill="#64748B">Aynı ACMG kriteri her mekanizmada aynı şeyi ifade etmez. Bu matris, mekanizma bilgisinin hangi kriteri açtığını, hangisini zayıflattığını ve hangisini geçersiz kıldığını özetler.</text>
  <rect x="32" y="76" width="270" height="40" rx="8" fill="#1A2B4A"/>
  <text x="48" y="101" font-size="11" font-weight="700" fill="#ffffff">MEKANİZMA (bölüm)</text>
  <rect x="304" y="76" width="94" height="40" rx="8" fill="#1A2B4A"/>
  <text x="351" y="101" font-size="10.5" font-weight="700" fill="#ffffff" text-anchor="middle">PVS1</text>
  <rect x="402" y="76" width="94" height="40" rx="8" fill="#1A2B4A"/>
  <text x="449" y="101" font-size="10.5" font-weight="700" fill="#ffffff" text-anchor="middle">PM1</text>
  <rect x="500" y="76" width="94" height="40" rx="8" fill="#1A2B4A"/>
  <text x="547" y="101" font-size="10.5" font-weight="700" fill="#ffffff" text-anchor="middle">PS1 / PM5</text>
  <rect x="598" y="76" width="94" height="40" rx="8" fill="#1A2B4A"/>
  <text x="645" y="101" font-size="10.5" font-weight="700" fill="#ffffff" text-anchor="middle">PS3 / BS3</text>
  <rect x="696" y="76" width="94" height="40" rx="8" fill="#1A2B4A"/>
  <text x="743" y="101" font-size="10.5" font-weight="700" fill="#ffffff" text-anchor="middle">PP3 / BP4</text>
  <rect x="794" y="76" width="94" height="40" rx="8" fill="#1A2B4A"/>
  <text x="841" y="101" font-size="10.5" font-weight="700" fill="#ffffff" text-anchor="middle">PM2 / BA1</text>
  <rect x="892" y="76" width="94" height="40" rx="8" fill="#1A2B4A"/>
  <text x="939" y="101" font-size="10.5" font-weight="700" fill="#ffffff" text-anchor="middle">PP1 / BS4</text>
  <rect x="990" y="76" width="94" height="40" rx="8" fill="#1A2B4A"/>
  <text x="1037" y="101" font-size="10.5" font-weight="700" fill="#ffffff" text-anchor="middle">PS2 / PM6</text>
  <rect x="32" y="122" width="1056" height="34" rx="6" fill="#F8FAFC" stroke="#E2E8F0" stroke-width="0.8"/>
  <text x="48" y="138" font-size="11" font-weight="700" fill="#1A2B4A">İşlev kaybı · yetersiz doz</text>
  <text x="48" y="151" font-size="9" fill="#64748B">Bölüm 2–3</text>
  <rect x="336" y="129" width="30" height="20" rx="6" fill="#FEE2E2" stroke="#B91C1C" stroke-width="0.9"/>
  <text x="351" y="144" font-size="11" font-weight="700" fill="#B91C1C" text-anchor="middle">▲</text>
  <rect x="434" y="129" width="30" height="20" rx="6" fill="#F8FAFC" stroke="#94A3B8" stroke-width="0.9"/>
  <text x="449" y="144" font-size="11" font-weight="700" fill="#94A3B8" text-anchor="middle">●</text>
  <rect x="532" y="129" width="30" height="20" rx="6" fill="#F8FAFC" stroke="#94A3B8" stroke-width="0.9"/>
  <text x="547" y="144" font-size="11" font-weight="700" fill="#94A3B8" text-anchor="middle">●</text>
  <rect x="630" y="129" width="30" height="20" rx="6" fill="#F8FAFC" stroke="#94A3B8" stroke-width="0.9"/>
  <text x="645" y="144" font-size="11" font-weight="700" fill="#94A3B8" text-anchor="middle">●</text>
  <rect x="728" y="129" width="30" height="20" rx="6" fill="#F8FAFC" stroke="#94A3B8" stroke-width="0.9"/>
  <text x="743" y="144" font-size="11" font-weight="700" fill="#94A3B8" text-anchor="middle">●</text>
  <rect x="826" y="129" width="30" height="20" rx="6" fill="#F8FAFC" stroke="#94A3B8" stroke-width="0.9"/>
  <text x="841" y="144" font-size="11" font-weight="700" fill="#94A3B8" text-anchor="middle">●</text>
  <rect x="924" y="129" width="30" height="20" rx="6" fill="#F8FAFC" stroke="#94A3B8" stroke-width="0.9"/>
  <text x="939" y="144" font-size="11" font-weight="700" fill="#94A3B8" text-anchor="middle">●</text>
  <rect x="1022" y="129" width="30" height="20" rx="6" fill="#F8FAFC" stroke="#94A3B8" stroke-width="0.9"/>
  <text x="1037" y="144" font-size="11" font-weight="700" fill="#94A3B8" text-anchor="middle">●</text>
  <rect x="32" y="158" width="1056" height="34" rx="6" fill="#F1F5F9" stroke="#E2E8F0" stroke-width="0.8"/>
  <text x="48" y="174" font-size="11" font-weight="700" fill="#1A2B4A">İşlev kazanımı (GoF)</text>
  <text x="48" y="187" font-size="9" fill="#64748B">Bölüm 4</text>
  <rect x="336" y="165" width="30" height="20" rx="6" fill="#E2E8F0" stroke="#475569" stroke-width="0.9"/>
  <text x="351" y="180" font-size="11" font-weight="700" fill="#475569" text-anchor="middle">✖</text>
  <rect x="434" y="165" width="30" height="20" rx="6" fill="#FEE2E2" stroke="#B91C1C" stroke-width="0.9"/>
  <text x="449" y="180" font-size="11" font-weight="700" fill="#B91C1C" text-anchor="middle">▲</text>
  <rect x="532" y="165" width="30" height="20" rx="6" fill="#FEE2E2" stroke="#B91C1C" stroke-width="0.9"/>
  <text x="547" y="180" font-size="11" font-weight="700" fill="#B91C1C" text-anchor="middle">▲</text>
  <rect x="630" y="165" width="30" height="20" rx="6" fill="#FEE2E2" stroke="#B91C1C" stroke-width="0.9"/>
  <text x="645" y="180" font-size="11" font-weight="700" fill="#B91C1C" text-anchor="middle">▲</text>
  <rect x="728" y="165" width="30" height="20" rx="6" fill="#FEF3C7" stroke="#B45309" stroke-width="0.9"/>
  <text x="743" y="180" font-size="11" font-weight="700" fill="#B45309" text-anchor="middle">▼</text>
  <rect x="826" y="165" width="30" height="20" rx="6" fill="#F8FAFC" stroke="#94A3B8" stroke-width="0.9"/>
  <text x="841" y="180" font-size="11" font-weight="700" fill="#94A3B8" text-anchor="middle">●</text>
  <rect x="924" y="165" width="30" height="20" rx="6" fill="#F8FAFC" stroke="#94A3B8" stroke-width="0.9"/>
  <text x="939" y="180" font-size="11" font-weight="700" fill="#94A3B8" text-anchor="middle">●</text>
  <rect x="1022" y="165" width="30" height="20" rx="6" fill="#FEE2E2" stroke="#B91C1C" stroke-width="0.9"/>
  <text x="1037" y="180" font-size="11" font-weight="700" fill="#B91C1C" text-anchor="middle">▲</text>
  <rect x="32" y="194" width="1056" height="34" rx="6" fill="#F8FAFC" stroke="#E2E8F0" stroke-width="0.8"/>
  <text x="48" y="210" font-size="11" font-weight="700" fill="#1A2B4A">Dominant-negatif</text>
  <text x="48" y="223" font-size="9" fill="#64748B">Bölüm 5</text>
  <rect x="336" y="201" width="30" height="20" rx="6" fill="#E2E8F0" stroke="#475569" stroke-width="0.9"/>
  <text x="351" y="216" font-size="11" font-weight="700" fill="#475569" text-anchor="middle">✖</text>
  <rect x="434" y="201" width="30" height="20" rx="6" fill="#FEE2E2" stroke="#B91C1C" stroke-width="0.9"/>
  <text x="449" y="216" font-size="11" font-weight="700" fill="#B91C1C" text-anchor="middle">▲</text>
  <rect x="532" y="201" width="30" height="20" rx="6" fill="#F8FAFC" stroke="#94A3B8" stroke-width="0.9"/>
  <text x="547" y="216" font-size="11" font-weight="700" fill="#94A3B8" text-anchor="middle">●</text>
  <rect x="630" y="201" width="30" height="20" rx="6" fill="#FEE2E2" stroke="#B91C1C" stroke-width="0.9"/>
  <text x="645" y="216" font-size="11" font-weight="700" fill="#B91C1C" text-anchor="middle">▲</text>
  <rect x="728" y="201" width="30" height="20" rx="6" fill="#FEF3C7" stroke="#B45309" stroke-width="0.9"/>
  <text x="743" y="216" font-size="11" font-weight="700" fill="#B45309" text-anchor="middle">▼</text>
  <rect x="826" y="201" width="30" height="20" rx="6" fill="#F8FAFC" stroke="#94A3B8" stroke-width="0.9"/>
  <text x="841" y="216" font-size="11" font-weight="700" fill="#94A3B8" text-anchor="middle">●</text>
  <rect x="924" y="201" width="30" height="20" rx="6" fill="#F8FAFC" stroke="#94A3B8" stroke-width="0.9"/>
  <text x="939" y="216" font-size="11" font-weight="700" fill="#94A3B8" text-anchor="middle">●</text>
  <rect x="1022" y="201" width="30" height="20" rx="6" fill="#F8FAFC" stroke="#94A3B8" stroke-width="0.9"/>
  <text x="1037" y="216" font-size="11" font-weight="700" fill="#94A3B8" text-anchor="middle">●</text>
  <rect x="32" y="230" width="1056" height="34" rx="6" fill="#F1F5F9" stroke="#E2E8F0" stroke-width="0.8"/>
  <text x="48" y="246" font-size="11" font-weight="700" fill="#1A2B4A">Neomorfik · antimorfik</text>
  <text x="48" y="259" font-size="9" fill="#64748B">Bölüm 6</text>
  <rect x="336" y="237" width="30" height="20" rx="6" fill="#E2E8F0" stroke="#475569" stroke-width="0.9"/>
  <text x="351" y="252" font-size="11" font-weight="700" fill="#475569" text-anchor="middle">✖</text>
  <rect x="434" y="237" width="30" height="20" rx="6" fill="#FEE2E2" stroke="#B91C1C" stroke-width="0.9"/>
  <text x="449" y="252" font-size="11" font-weight="700" fill="#B91C1C" text-anchor="middle">▲</text>
  <rect x="532" y="237" width="30" height="20" rx="6" fill="#FEE2E2" stroke="#B91C1C" stroke-width="0.9"/>
  <text x="547" y="252" font-size="11" font-weight="700" fill="#B91C1C" text-anchor="middle">▲</text>
  <rect x="630" y="237" width="30" height="20" rx="6" fill="#FEE2E2" stroke="#B91C1C" stroke-width="0.9"/>
  <text x="645" y="252" font-size="11" font-weight="700" fill="#B91C1C" text-anchor="middle">▲</text>
  <rect x="728" y="237" width="30" height="20" rx="6" fill="#FEF3C7" stroke="#B45309" stroke-width="0.9"/>
  <text x="743" y="252" font-size="11" font-weight="700" fill="#B45309" text-anchor="middle">▼</text>
  <rect x="826" y="237" width="30" height="20" rx="6" fill="#F8FAFC" stroke="#94A3B8" stroke-width="0.9"/>
  <text x="841" y="252" font-size="11" font-weight="700" fill="#94A3B8" text-anchor="middle">●</text>
  <rect x="924" y="237" width="30" height="20" rx="6" fill="#F8FAFC" stroke="#94A3B8" stroke-width="0.9"/>
  <text x="939" y="252" font-size="11" font-weight="700" fill="#94A3B8" text-anchor="middle">●</text>
  <rect x="1022" y="237" width="30" height="20" rx="6" fill="#F8FAFC" stroke="#94A3B8" stroke-width="0.9"/>
  <text x="1037" y="252" font-size="11" font-weight="700" fill="#94A3B8" text-anchor="middle">●</text>
  <rect x="32" y="266" width="1056" height="34" rx="6" fill="#F8FAFC" stroke="#E2E8F0" stroke-width="0.8"/>
  <text x="48" y="282" font-size="11" font-weight="700" fill="#1A2B4A">Splicing</text>
  <text x="48" y="295" font-size="9" fill="#64748B">Bölüm 7</text>
  <rect x="336" y="273" width="30" height="20" rx="6" fill="#FEE2E2" stroke="#B91C1C" stroke-width="0.9"/>
  <text x="351" y="288" font-size="11" font-weight="700" fill="#B91C1C" text-anchor="middle">▲</text>
  <rect x="434" y="273" width="30" height="20" rx="6" fill="#F8FAFC" stroke="#94A3B8" stroke-width="0.9"/>
  <text x="449" y="288" font-size="11" font-weight="700" fill="#94A3B8" text-anchor="middle">●</text>
  <rect x="532" y="273" width="30" height="20" rx="6" fill="#FEE2E2" stroke="#B91C1C" stroke-width="0.9"/>
  <text x="547" y="288" font-size="11" font-weight="700" fill="#B91C1C" text-anchor="middle">▲</text>
  <rect x="630" y="273" width="30" height="20" rx="6" fill="#FEE2E2" stroke="#B91C1C" stroke-width="0.9"/>
  <text x="645" y="288" font-size="11" font-weight="700" fill="#B91C1C" text-anchor="middle">▲</text>
  <rect x="728" y="273" width="30" height="20" rx="6" fill="#FEE2E2" stroke="#B91C1C" stroke-width="0.9"/>
  <text x="743" y="288" font-size="11" font-weight="700" fill="#B91C1C" text-anchor="middle">▲</text>
  <rect x="826" y="273" width="30" height="20" rx="6" fill="#F8FAFC" stroke="#94A3B8" stroke-width="0.9"/>
  <text x="841" y="288" font-size="11" font-weight="700" fill="#94A3B8" text-anchor="middle">●</text>
  <rect x="924" y="273" width="30" height="20" rx="6" fill="#F8FAFC" stroke="#94A3B8" stroke-width="0.9"/>
  <text x="939" y="288" font-size="11" font-weight="700" fill="#94A3B8" text-anchor="middle">●</text>
  <rect x="1022" y="273" width="30" height="20" rx="6" fill="#F8FAFC" stroke="#94A3B8" stroke-width="0.9"/>
  <text x="1037" y="288" font-size="11" font-weight="700" fill="#94A3B8" text-anchor="middle">●</text>
  <rect x="32" y="302" width="1056" height="34" rx="6" fill="#F1F5F9" stroke="#E2E8F0" stroke-width="0.8"/>
  <text x="48" y="318" font-size="11" font-weight="700" fill="#1A2B4A">CNV · yapısal varyant</text>
  <text x="48" y="331" font-size="9" fill="#64748B">Bölüm 8</text>
  <rect x="336" y="309" width="30" height="20" rx="6" fill="#DBEAFE" stroke="#1D4ED8" stroke-width="0.9"/>
  <text x="351" y="324" font-size="11" font-weight="700" fill="#1D4ED8" text-anchor="middle">◆</text>
  <rect x="434" y="309" width="30" height="20" rx="6" fill="#DBEAFE" stroke="#1D4ED8" stroke-width="0.9"/>
  <text x="449" y="324" font-size="11" font-weight="700" fill="#1D4ED8" text-anchor="middle">◆</text>
  <rect x="532" y="309" width="30" height="20" rx="6" fill="#E2E8F0" stroke="#475569" stroke-width="0.9"/>
  <text x="547" y="324" font-size="11" font-weight="700" fill="#475569" text-anchor="middle">✖</text>
  <rect x="630" y="309" width="30" height="20" rx="6" fill="#F8FAFC" stroke="#94A3B8" stroke-width="0.9"/>
  <text x="645" y="324" font-size="11" font-weight="700" fill="#94A3B8" text-anchor="middle">●</text>
  <rect x="728" y="309" width="30" height="20" rx="6" fill="#E2E8F0" stroke="#475569" stroke-width="0.9"/>
  <text x="743" y="324" font-size="11" font-weight="700" fill="#475569" text-anchor="middle">✖</text>
  <rect x="826" y="309" width="30" height="20" rx="6" fill="#F8FAFC" stroke="#94A3B8" stroke-width="0.9"/>
  <text x="841" y="324" font-size="11" font-weight="700" fill="#94A3B8" text-anchor="middle">●</text>
  <rect x="924" y="309" width="30" height="20" rx="6" fill="#F8FAFC" stroke="#94A3B8" stroke-width="0.9"/>
  <text x="939" y="324" font-size="11" font-weight="700" fill="#94A3B8" text-anchor="middle">●</text>
  <rect x="1022" y="309" width="30" height="20" rx="6" fill="#F8FAFC" stroke="#94A3B8" stroke-width="0.9"/>
  <text x="1037" y="324" font-size="11" font-weight="700" fill="#94A3B8" text-anchor="middle">●</text>
  <rect x="32" y="338" width="1056" height="34" rx="6" fill="#F8FAFC" stroke="#E2E8F0" stroke-width="0.8"/>
  <text x="48" y="354" font-size="11" font-weight="700" fill="#1A2B4A">Tekrar genişlemesi</text>
  <text x="48" y="367" font-size="9" fill="#64748B">Bölüm 9</text>
  <rect x="336" y="345" width="30" height="20" rx="6" fill="#E2E8F0" stroke="#475569" stroke-width="0.9"/>
  <text x="351" y="360" font-size="11" font-weight="700" fill="#475569" text-anchor="middle">✖</text>
  <rect x="434" y="345" width="30" height="20" rx="6" fill="#E2E8F0" stroke="#475569" stroke-width="0.9"/>
  <text x="449" y="360" font-size="11" font-weight="700" fill="#475569" text-anchor="middle">✖</text>
  <rect x="532" y="345" width="30" height="20" rx="6" fill="#E2E8F0" stroke="#475569" stroke-width="0.9"/>
  <text x="547" y="360" font-size="11" font-weight="700" fill="#475569" text-anchor="middle">✖</text>
  <rect x="630" y="345" width="30" height="20" rx="6" fill="#F8FAFC" stroke="#94A3B8" stroke-width="0.9"/>
  <text x="645" y="360" font-size="11" font-weight="700" fill="#94A3B8" text-anchor="middle">●</text>
  <rect x="728" y="345" width="30" height="20" rx="6" fill="#E2E8F0" stroke="#475569" stroke-width="0.9"/>
  <text x="743" y="360" font-size="11" font-weight="700" fill="#475569" text-anchor="middle">✖</text>
  <rect x="826" y="345" width="30" height="20" rx="6" fill="#DBEAFE" stroke="#1D4ED8" stroke-width="0.9"/>
  <text x="841" y="360" font-size="11" font-weight="700" fill="#1D4ED8" text-anchor="middle">◆</text>
  <rect x="924" y="345" width="30" height="20" rx="6" fill="#FEE2E2" stroke="#B91C1C" stroke-width="0.9"/>
  <text x="939" y="360" font-size="11" font-weight="700" fill="#B91C1C" text-anchor="middle">▲</text>
  <rect x="1022" y="345" width="30" height="20" rx="6" fill="#E2E8F0" stroke="#475569" stroke-width="0.9"/>
  <text x="1037" y="360" font-size="11" font-weight="700" fill="#475569" text-anchor="middle">✖</text>
  <rect x="32" y="374" width="1056" height="34" rx="6" fill="#F1F5F9" stroke="#E2E8F0" stroke-width="0.8"/>
  <text x="48" y="390" font-size="11" font-weight="700" fill="#1A2B4A">İmprinting · UPD</text>
  <text x="48" y="403" font-size="9" fill="#64748B">Bölüm 10</text>
  <rect x="336" y="381" width="30" height="20" rx="6" fill="#FEF3C7" stroke="#B45309" stroke-width="0.9"/>
  <text x="351" y="396" font-size="11" font-weight="700" fill="#B45309" text-anchor="middle">▼</text>
  <rect x="434" y="381" width="30" height="20" rx="6" fill="#F8FAFC" stroke="#94A3B8" stroke-width="0.9"/>
  <text x="449" y="396" font-size="11" font-weight="700" fill="#94A3B8" text-anchor="middle">●</text>
  <rect x="532" y="381" width="30" height="20" rx="6" fill="#F8FAFC" stroke="#94A3B8" stroke-width="0.9"/>
  <text x="547" y="396" font-size="11" font-weight="700" fill="#94A3B8" text-anchor="middle">●</text>
  <rect x="630" y="381" width="30" height="20" rx="6" fill="#F8FAFC" stroke="#94A3B8" stroke-width="0.9"/>
  <text x="645" y="396" font-size="11" font-weight="700" fill="#94A3B8" text-anchor="middle">●</text>
  <rect x="728" y="381" width="30" height="20" rx="6" fill="#F8FAFC" stroke="#94A3B8" stroke-width="0.9"/>
  <text x="743" y="396" font-size="11" font-weight="700" fill="#94A3B8" text-anchor="middle">●</text>
  <rect x="826" y="381" width="30" height="20" rx="6" fill="#F8FAFC" stroke="#94A3B8" stroke-width="0.9"/>
  <text x="841" y="396" font-size="11" font-weight="700" fill="#94A3B8" text-anchor="middle">●</text>
  <rect x="924" y="381" width="30" height="20" rx="6" fill="#FEF3C7" stroke="#B45309" stroke-width="0.9"/>
  <text x="939" y="396" font-size="11" font-weight="700" fill="#B45309" text-anchor="middle">▼</text>
  <rect x="1022" y="381" width="30" height="20" rx="6" fill="#F8FAFC" stroke="#94A3B8" stroke-width="0.9"/>
  <text x="1037" y="396" font-size="11" font-weight="700" fill="#94A3B8" text-anchor="middle">●</text>
  <rect x="32" y="410" width="1056" height="34" rx="6" fill="#F8FAFC" stroke="#E2E8F0" stroke-width="0.8"/>
  <text x="48" y="426" font-size="11" font-weight="700" fill="#1A2B4A">Mitokondriyal (mtDNA)</text>
  <text x="48" y="439" font-size="9" fill="#64748B">Bölüm 11</text>
  <rect x="336" y="417" width="30" height="20" rx="6" fill="#E2E8F0" stroke="#475569" stroke-width="0.9"/>
  <text x="351" y="432" font-size="11" font-weight="700" fill="#475569" text-anchor="middle">✖</text>
  <rect x="434" y="417" width="30" height="20" rx="6" fill="#F8FAFC" stroke="#94A3B8" stroke-width="0.9"/>
  <text x="449" y="432" font-size="11" font-weight="700" fill="#94A3B8" text-anchor="middle">●</text>
  <rect x="532" y="417" width="30" height="20" rx="6" fill="#F8FAFC" stroke="#94A3B8" stroke-width="0.9"/>
  <text x="547" y="432" font-size="11" font-weight="700" fill="#94A3B8" text-anchor="middle">●</text>
  <rect x="630" y="417" width="30" height="20" rx="6" fill="#FEE2E2" stroke="#B91C1C" stroke-width="0.9"/>
  <text x="645" y="432" font-size="11" font-weight="700" fill="#B91C1C" text-anchor="middle">▲</text>
  <rect x="728" y="417" width="30" height="20" rx="6" fill="#DBEAFE" stroke="#1D4ED8" stroke-width="0.9"/>
  <text x="743" y="432" font-size="11" font-weight="700" fill="#1D4ED8" text-anchor="middle">◆</text>
  <rect x="826" y="417" width="30" height="20" rx="6" fill="#DBEAFE" stroke="#1D4ED8" stroke-width="0.9"/>
  <text x="841" y="432" font-size="11" font-weight="700" fill="#1D4ED8" text-anchor="middle">◆</text>
  <rect x="924" y="417" width="30" height="20" rx="6" fill="#DBEAFE" stroke="#1D4ED8" stroke-width="0.9"/>
  <text x="939" y="432" font-size="11" font-weight="700" fill="#1D4ED8" text-anchor="middle">◆</text>
  <rect x="1022" y="417" width="30" height="20" rx="6" fill="#E2E8F0" stroke="#475569" stroke-width="0.9"/>
  <text x="1037" y="432" font-size="11" font-weight="700" fill="#475569" text-anchor="middle">✖</text>
  <rect x="32" y="446" width="1056" height="34" rx="6" fill="#F1F5F9" stroke="#E2E8F0" stroke-width="0.8"/>
  <text x="48" y="462" font-size="11" font-weight="700" fill="#1A2B4A">Mozaiklik</text>
  <text x="48" y="475" font-size="9" fill="#64748B">Bölüm 12</text>
  <rect x="336" y="453" width="30" height="20" rx="6" fill="#F8FAFC" stroke="#94A3B8" stroke-width="0.9"/>
  <text x="351" y="468" font-size="11" font-weight="700" fill="#94A3B8" text-anchor="middle">●</text>
  <rect x="434" y="453" width="30" height="20" rx="6" fill="#FEE2E2" stroke="#B91C1C" stroke-width="0.9"/>
  <text x="449" y="468" font-size="11" font-weight="700" fill="#B91C1C" text-anchor="middle">▲</text>
  <rect x="532" y="453" width="30" height="20" rx="6" fill="#FEE2E2" stroke="#B91C1C" stroke-width="0.9"/>
  <text x="547" y="468" font-size="11" font-weight="700" fill="#B91C1C" text-anchor="middle">▲</text>
  <rect x="630" y="453" width="30" height="20" rx="6" fill="#F8FAFC" stroke="#94A3B8" stroke-width="0.9"/>
  <text x="645" y="468" font-size="11" font-weight="700" fill="#94A3B8" text-anchor="middle">●</text>
  <rect x="728" y="453" width="30" height="20" rx="6" fill="#F8FAFC" stroke="#94A3B8" stroke-width="0.9"/>
  <text x="743" y="468" font-size="11" font-weight="700" fill="#94A3B8" text-anchor="middle">●</text>
  <rect x="826" y="453" width="30" height="20" rx="6" fill="#F8FAFC" stroke="#94A3B8" stroke-width="0.9"/>
  <text x="841" y="468" font-size="11" font-weight="700" fill="#94A3B8" text-anchor="middle">●</text>
  <rect x="924" y="453" width="30" height="20" rx="6" fill="#E2E8F0" stroke="#475569" stroke-width="0.9"/>
  <text x="939" y="468" font-size="11" font-weight="700" fill="#475569" text-anchor="middle">✖</text>
  <rect x="1022" y="453" width="30" height="20" rx="6" fill="#FEF3C7" stroke="#B45309" stroke-width="0.9"/>
  <text x="1037" y="468" font-size="11" font-weight="700" fill="#B45309" text-anchor="middle">▼</text>
  <rect x="32" y="482" width="1056" height="34" rx="6" fill="#F8FAFC" stroke="#E2E8F0" stroke-width="0.8"/>
  <text x="48" y="498" font-size="11" font-weight="700" fill="#1A2B4A">Kodlamayan · regülatör</text>
  <text x="48" y="511" font-size="9" fill="#64748B">Bölüm 13</text>
  <rect x="336" y="489" width="30" height="20" rx="6" fill="#E2E8F0" stroke="#475569" stroke-width="0.9"/>
  <text x="351" y="504" font-size="11" font-weight="700" fill="#475569" text-anchor="middle">✖</text>
  <rect x="434" y="489" width="30" height="20" rx="6" fill="#FEF3C7" stroke="#B45309" stroke-width="0.9"/>
  <text x="449" y="504" font-size="11" font-weight="700" fill="#B45309" text-anchor="middle">▼</text>
  <rect x="532" y="489" width="30" height="20" rx="6" fill="#E2E8F0" stroke="#475569" stroke-width="0.9"/>
  <text x="547" y="504" font-size="11" font-weight="700" fill="#475569" text-anchor="middle">✖</text>
  <rect x="630" y="489" width="30" height="20" rx="6" fill="#FEE2E2" stroke="#B91C1C" stroke-width="0.9"/>
  <text x="645" y="504" font-size="11" font-weight="700" fill="#B91C1C" text-anchor="middle">▲</text>
  <rect x="728" y="489" width="30" height="20" rx="6" fill="#FEF3C7" stroke="#B45309" stroke-width="0.9"/>
  <text x="743" y="504" font-size="11" font-weight="700" fill="#B45309" text-anchor="middle">▼</text>
  <rect x="826" y="489" width="30" height="20" rx="6" fill="#F8FAFC" stroke="#94A3B8" stroke-width="0.9"/>
  <text x="841" y="504" font-size="11" font-weight="700" fill="#94A3B8" text-anchor="middle">●</text>
  <rect x="924" y="489" width="30" height="20" rx="6" fill="#F8FAFC" stroke="#94A3B8" stroke-width="0.9"/>
  <text x="939" y="504" font-size="11" font-weight="700" fill="#94A3B8" text-anchor="middle">●</text>
  <rect x="1022" y="489" width="30" height="20" rx="6" fill="#F8FAFC" stroke="#94A3B8" stroke-width="0.9"/>
  <text x="1037" y="504" font-size="11" font-weight="700" fill="#94A3B8" text-anchor="middle">●</text>
  <rect x="32" y="518" width="1056" height="34" rx="6" fill="#F1F5F9" stroke="#E2E8F0" stroke-width="0.8"/>
  <text x="48" y="534" font-size="11" font-weight="700" fill="#1A2B4A">Digenik · modifier</text>
  <text x="48" y="547" font-size="9" fill="#64748B">Bölüm 14</text>
  <rect x="336" y="525" width="30" height="20" rx="6" fill="#F8FAFC" stroke="#94A3B8" stroke-width="0.9"/>
  <text x="351" y="540" font-size="11" font-weight="700" fill="#94A3B8" text-anchor="middle">●</text>
  <rect x="434" y="525" width="30" height="20" rx="6" fill="#F8FAFC" stroke="#94A3B8" stroke-width="0.9"/>
  <text x="449" y="540" font-size="11" font-weight="700" fill="#94A3B8" text-anchor="middle">●</text>
  <rect x="532" y="525" width="30" height="20" rx="6" fill="#F8FAFC" stroke="#94A3B8" stroke-width="0.9"/>
  <text x="547" y="540" font-size="11" font-weight="700" fill="#94A3B8" text-anchor="middle">●</text>
  <rect x="630" y="525" width="30" height="20" rx="6" fill="#F8FAFC" stroke="#94A3B8" stroke-width="0.9"/>
  <text x="645" y="540" font-size="11" font-weight="700" fill="#94A3B8" text-anchor="middle">●</text>
  <rect x="728" y="525" width="30" height="20" rx="6" fill="#F8FAFC" stroke="#94A3B8" stroke-width="0.9"/>
  <text x="743" y="540" font-size="11" font-weight="700" fill="#94A3B8" text-anchor="middle">●</text>
  <rect x="826" y="525" width="30" height="20" rx="6" fill="#F8FAFC" stroke="#94A3B8" stroke-width="0.9"/>
  <text x="841" y="540" font-size="11" font-weight="700" fill="#94A3B8" text-anchor="middle">●</text>
  <rect x="924" y="525" width="30" height="20" rx="6" fill="#FEF3C7" stroke="#B45309" stroke-width="0.9"/>
  <text x="939" y="540" font-size="11" font-weight="700" fill="#B45309" text-anchor="middle">▼</text>
  <rect x="1022" y="525" width="30" height="20" rx="6" fill="#F8FAFC" stroke="#94A3B8" stroke-width="0.9"/>
  <text x="1037" y="540" font-size="11" font-weight="700" fill="#94A3B8" text-anchor="middle">●</text>
  <rect x="32" y="554" width="1056" height="34" rx="6" fill="#F8FAFC" stroke="#E2E8F0" stroke-width="0.8"/>
  <text x="48" y="570" font-size="11" font-weight="700" fill="#1A2B4A">Allelik seri (aynı gen)</text>
  <text x="48" y="583" font-size="9" fill="#64748B">Bölüm 15</text>
  <rect x="336" y="561" width="30" height="20" rx="6" fill="#FEF3C7" stroke="#B45309" stroke-width="0.9"/>
  <text x="351" y="576" font-size="11" font-weight="700" fill="#B45309" text-anchor="middle">▼</text>
  <rect x="434" y="561" width="30" height="20" rx="6" fill="#FEF3C7" stroke="#B45309" stroke-width="0.9"/>
  <text x="449" y="576" font-size="11" font-weight="700" fill="#B45309" text-anchor="middle">▼</text>
  <rect x="532" y="561" width="30" height="20" rx="6" fill="#FEF3C7" stroke="#B45309" stroke-width="0.9"/>
  <text x="547" y="576" font-size="11" font-weight="700" fill="#B45309" text-anchor="middle">▼</text>
  <rect x="630" y="561" width="30" height="20" rx="6" fill="#FEF3C7" stroke="#B45309" stroke-width="0.9"/>
  <text x="645" y="576" font-size="11" font-weight="700" fill="#B45309" text-anchor="middle">▼</text>
  <rect x="728" y="561" width="30" height="20" rx="6" fill="#F8FAFC" stroke="#94A3B8" stroke-width="0.9"/>
  <text x="743" y="576" font-size="11" font-weight="700" fill="#94A3B8" text-anchor="middle">●</text>
  <rect x="826" y="561" width="30" height="20" rx="6" fill="#F8FAFC" stroke="#94A3B8" stroke-width="0.9"/>
  <text x="841" y="576" font-size="11" font-weight="700" fill="#94A3B8" text-anchor="middle">●</text>
  <rect x="924" y="561" width="30" height="20" rx="6" fill="#F8FAFC" stroke="#94A3B8" stroke-width="0.9"/>
  <text x="939" y="576" font-size="11" font-weight="700" fill="#94A3B8" text-anchor="middle">●</text>
  <rect x="1022" y="561" width="30" height="20" rx="6" fill="#F8FAFC" stroke="#94A3B8" stroke-width="0.9"/>
  <text x="1037" y="576" font-size="11" font-weight="700" fill="#94A3B8" text-anchor="middle">●</text>
  <rect x="32" y="598" width="1056" height="46" rx="8" fill="#ffffff" stroke="#CBD5E1" stroke-width="1"/>
  <rect x="52" y="611" width="30" height="20" rx="6" fill="#FEE2E2" stroke="#B91C1C" stroke-width="0.9"/>
  <text x="67" y="626" font-size="11" font-weight="700" fill="#B91C1C" text-anchor="middle">▲</text>
  <text x="90" y="626" font-size="10" fill="#2E3440">GÜÇLENDİRİR</text>
  <rect x="314.0" y="611" width="30" height="20" rx="6" fill="#FEF3C7" stroke="#B45309" stroke-width="0.9"/>
  <text x="329.0" y="626" font-size="11" font-weight="700" fill="#B45309" text-anchor="middle">▼</text>
  <text x="352.0" y="626" font-size="10" fill="#2E3440">gücü DÜŞÜRÜLMELİ</text>
  <rect x="525.6" y="611" width="30" height="20" rx="6" fill="#E2E8F0" stroke="#475569" stroke-width="0.9"/>
  <text x="540.6" y="626" font-size="11" font-weight="700" fill="#475569" text-anchor="middle">✖</text>
  <text x="563.6" y="626" font-size="10" fill="#2E3440">UYGULANAMAZ</text>
  <rect x="653.2" y="611" width="30" height="20" rx="6" fill="#DBEAFE" stroke="#1D4ED8" stroke-width="0.9"/>
  <text x="668.2" y="626" font-size="11" font-weight="700" fill="#1D4ED8" text-anchor="middle">◆</text>
  <text x="691.2" y="626" font-size="10" fill="#2E3440">ÖZEL çerçeve gerekir</text>
  <rect x="831.2" y="611" width="30" height="20" rx="6" fill="#F8FAFC" stroke="#94A3B8" stroke-width="0.9"/>
  <text x="846.2" y="626" font-size="11" font-weight="700" fill="#94A3B8" text-anchor="middle">●</text>
  <text x="869.2" y="626" font-size="10" fill="#2E3440">standart</text>
  <text x="1072" y="626" font-size="9" fill="#94A3B8" text-anchor="end">Pedagojik özet</text>
  <rect x="32" y="654" width="1056" height="30" rx="8" fill="#FEF3C7" stroke="#D97706" stroke-width="1"/>
  <text x="560" y="674" font-size="11.5" font-weight="700" fill="#B45309" text-anchor="middle">Öğreti: Kriterin adı sabittir, anlamı değildir. Mekanizmayı bilmeden seçilen her kriter, yanlış güçte uygulanma riski taşır.</text>
</svg>
